<svg width="24" height="24" viewBox="0 0 24 24" fill="none"
   xmlns="http://www.w3.org/2000/svg">
   <path fill-rule="evenodd" clip-rule="evenodd" d="M8.99961 3.09998C7.15546 3.09998 5.61027 4.37996 5.20397 6.09998H2.99961C2.50255 6.09998 2.09961 6.50292 2.09961 6.99998C2.09961 7.49703 2.50255 7.89998 2.99961 7.89998H5.20397C5.61027 9.62 7.15546 10.9 8.99961 10.9C10.8438 10.9 12.389 9.62 12.7952 7.89998H20.9996C21.4967 7.89998 21.8996 7.49703 21.8996 6.99998C21.8996 6.50292 21.4967 6.09998 20.9996 6.09998L12.7953 6.09998C12.389 4.37996 10.8438 3.09998 8.99961 3.09998ZM8.99961 9.09998C7.83981 9.09998 6.89961 8.15977 6.89961 6.99998C6.89961 5.84018 7.83981 4.89998 8.99961 4.89998C10.1594 4.89998 11.0996 5.84018 11.0996 6.99998C11.0996 8.15977 10.1594 9.09998 8.99961 9.09998Z" fill="currentColor"></path>
   <path fill-rule="evenodd" clip-rule="evenodd" d="M11.204 17.9H2.99961C2.50255 17.9 2.09961 17.497 2.09961 17C2.09961 16.5029 2.50255 16.1 2.99961 16.1H11.204C11.6103 14.38 13.1555 13.1 14.9996 13.1C16.8438 13.1 18.389 14.38 18.7952 16.1H20.9996C21.4967 16.1 21.8996 16.5029 21.8996 17C21.8996 17.497 21.4967 17.9 20.9996 17.9H18.7952C18.389 19.62 16.8438 20.9 14.9996 20.9C13.1555 20.9 11.6103 19.62 11.204 17.9ZM17.0996 17C17.0996 15.8402 16.1594 14.9 14.9996 14.9C13.8398 14.9 12.8996 15.8402 12.8996 17C12.8996 18.1598 13.8398 19.1 14.9996 19.1C16.1594 19.1 17.0996 18.1598 17.0996 17Z" fill="currentColor"></path>
</svg>